<?xml version="1.0" encoding="UTF-8" standalone="no"?>
<!-- Created with Inkscape (http://www.inkscape.org/) -->

<svg
   xmlns:dc="http://purl.org/dc/elements/1.1/"
   xmlns:cc="http://creativecommons.org/ns#"
   xmlns:rdf="http://www.w3.org/1999/02/22-rdf-syntax-ns#"
   xmlns:svg="http://www.w3.org/2000/svg"
   xmlns="http://www.w3.org/2000/svg"
   xmlns:sodipodi="http://sodipodi.sourceforge.net/DTD/sodipodi-0.dtd"
   xmlns:inkscape="http://www.inkscape.org/namespaces/inkscape"
   version="1.1"
   id="svg4166"
   xml:space="preserve"
   width="2000"
   height="666.66669"
   viewBox="0 0 2000 666.66669"
   sodipodi:docname="backgroundGrid.svg"
   inkscape:version="0.92.5 (2060ec1f9f, 2020-04-08)"><metadata
     id="metadata4172"><rdf:RDF><cc:Work
         rdf:about=""><dc:format>image/svg+xml</dc:format><dc:type
           rdf:resource="http://purl.org/dc/dcmitype/StillImage" /><dc:title></dc:title></cc:Work></rdf:RDF></metadata><defs
     id="defs4170"><clipPath
       clipPathUnits="userSpaceOnUse"
       id="clipPath4184"><path
         d="M 0,0 H 1500 V 500 H 0 Z"
         id="path4182"
         inkscape:connector-curvature="0" /></clipPath><clipPath
       clipPathUnits="userSpaceOnUse"
       id="clipPath4434"><path
         d="M 1347.391,389.605 V 252.189 h -137.289 v -92.266 h -91.506 V 0 H 1500 v 389.605 z"
         id="path4432"
         inkscape:connector-curvature="0" /></clipPath><clipPath
       clipPathUnits="userSpaceOnUse"
       id="clipPath4470"><path
         d="M 0,0 H 1500 V 500 H 0 Z"
         id="path4468"
         inkscape:connector-curvature="0" /></clipPath><clipPath
       clipPathUnits="userSpaceOnUse"
       id="clipPath4578"><path
         d="M 0,500 H 1500 V 0 H 0 Z"
         id="path4576"
         inkscape:connector-curvature="0" /></clipPath></defs><sodipodi:namedview
     pagecolor="#ffffff"
     bordercolor="#666666"
     borderopacity="1"
     objecttolerance="10"
     gridtolerance="10"
     guidetolerance="10"
     inkscape:pageopacity="0"
     inkscape:pageshadow="2"
     inkscape:window-width="1862"
     inkscape:window-height="1016"
     id="namedview4168"
     showgrid="false"
     inkscape:zoom="0.58124177"
     inkscape:cx="921.4039"
     inkscape:cy="343.74283"
     inkscape:window-x="58"
     inkscape:window-y="27"
     inkscape:window-maximized="1"
     inkscape:current-layer="g4174" /><g
     id="g4174"
     inkscape:groupmode="layer"
     inkscape:label="DSC-HOmepage-Banner-2"
     transform="matrix(1.3333333,0,0,-1.3333333,0,666.66667)"><path
       d="M 0,0 H 1500 V 500 H 0 Z"
       style="fill:#ffffff;fill-opacity:1;fill-rule:nonzero;stroke:none"
       id="path4176"
       inkscape:connector-curvature="0" /><g
       id="g4186"
       transform="translate(20.96,575.3133)"><path
         d="M 0,0 V -643.082"
         style="fill:none;stroke:#dadbdf;stroke-width:1;stroke-linecap:butt;stroke-linejoin:miter;stroke-miterlimit:10;stroke-dasharray:none;stroke-opacity:1"
         id="path4188"
         inkscape:connector-curvature="0" /></g><g
       id="g4190"
       transform="translate(66.7169,575.3133)"><path
         d="M 0,0 V -643.082"
         style="fill:none;stroke:#dadbdf;stroke-width:1;stroke-linecap:butt;stroke-linejoin:miter;stroke-miterlimit:10;stroke-dasharray:none;stroke-opacity:1"
         id="path4192"
         inkscape:connector-curvature="0" /></g><g
       id="g4194"
       transform="translate(112.4732,575.3133)"><path
         d="M 0,0 V -643.082"
         style="fill:none;stroke:#dadbdf;stroke-width:1;stroke-linecap:butt;stroke-linejoin:miter;stroke-miterlimit:10;stroke-dasharray:none;stroke-opacity:1"
         id="path4196"
         inkscape:connector-curvature="0" /></g><g
       id="g4198"
       transform="translate(158.2301,575.3133)"><path
         d="M 0,0 V -643.082"
         style="fill:none;stroke:#dadbdf;stroke-width:1;stroke-linecap:butt;stroke-linejoin:miter;stroke-miterlimit:10;stroke-dasharray:none;stroke-opacity:1"
         id="path4200"
         inkscape:connector-curvature="0" /></g><g
       id="g4202"
       transform="translate(203.9864,575.3133)"><path
         d="M 0,0 V -643.082"
         style="fill:none;stroke:#dadbdf;stroke-width:1;stroke-linecap:butt;stroke-linejoin:miter;stroke-miterlimit:10;stroke-dasharray:none;stroke-opacity:1"
         id="path4204"
         inkscape:connector-curvature="0" /></g><g
       id="g4206"
       transform="translate(249.7432,575.3133)"><path
         d="M 0,0 V -643.082"
         style="fill:none;stroke:#dadbdf;stroke-width:1;stroke-linecap:butt;stroke-linejoin:miter;stroke-miterlimit:10;stroke-dasharray:none;stroke-opacity:1"
         id="path4208"
         inkscape:connector-curvature="0" /></g><g
       id="g4210"
       transform="translate(295.4996,575.3133)"><path
         d="M 0,0 V -643.082"
         style="fill:none;stroke:#dadbdf;stroke-width:1;stroke-linecap:butt;stroke-linejoin:miter;stroke-miterlimit:10;stroke-dasharray:none;stroke-opacity:1"
         id="path4212"
         inkscape:connector-curvature="0" /></g><g
       id="g4214"
       transform="translate(341.2564,575.3133)"><path
         d="M 0,0 V -643.082"
         style="fill:none;stroke:#dadbdf;stroke-width:1;stroke-linecap:butt;stroke-linejoin:miter;stroke-miterlimit:10;stroke-dasharray:none;stroke-opacity:1"
         id="path4216"
         inkscape:connector-curvature="0" /></g><g
       id="g4218"
       transform="translate(387.0128,575.3133)"><path
         d="M 0,0 V -643.082"
         style="fill:none;stroke:#dadbdf;stroke-width:1;stroke-linecap:butt;stroke-linejoin:miter;stroke-miterlimit:10;stroke-dasharray:none;stroke-opacity:1"
         id="path4220"
         inkscape:connector-curvature="0" /></g><g
       id="g4222"
       transform="translate(432.7696,575.3133)"><path
         d="M 0,0 V -643.082"
         style="fill:none;stroke:#dadbdf;stroke-width:1;stroke-linecap:butt;stroke-linejoin:miter;stroke-miterlimit:10;stroke-dasharray:none;stroke-opacity:1"
         id="path4224"
         inkscape:connector-curvature="0" /></g><g
       id="g4226"
       transform="translate(478.526,575.3133)"><path
         d="M 0,0 V -643.082"
         style="fill:none;stroke:#dadbdf;stroke-width:1;stroke-linecap:butt;stroke-linejoin:miter;stroke-miterlimit:10;stroke-dasharray:none;stroke-opacity:1"
         id="path4228"
         inkscape:connector-curvature="0" /></g><g
       id="g4230"
       transform="translate(524.2828,575.3133)"><path
         d="M 0,0 V -643.082"
         style="fill:none;stroke:#dadbdf;stroke-width:1;stroke-linecap:butt;stroke-linejoin:miter;stroke-miterlimit:10;stroke-dasharray:none;stroke-opacity:1"
         id="path4232"
         inkscape:connector-curvature="0" /></g><g
       id="g4234"
       transform="translate(570.0391,575.3133)"><path
         d="M 0,0 V -643.082"
         style="fill:none;stroke:#dadbdf;stroke-width:1;stroke-linecap:butt;stroke-linejoin:miter;stroke-miterlimit:10;stroke-dasharray:none;stroke-opacity:1"
         id="path4236"
         inkscape:connector-curvature="0" /></g><g
       id="g4238"
       transform="translate(615.7959,575.3133)"><path
         d="M 0,0 V -643.082"
         style="fill:none;stroke:#dadbdf;stroke-width:1;stroke-linecap:butt;stroke-linejoin:miter;stroke-miterlimit:10;stroke-dasharray:none;stroke-opacity:1"
         id="path4240"
         inkscape:connector-curvature="0" /></g><g
       id="g4242"
       transform="translate(661.5523,575.3133)"><path
         d="M 0,0 V -643.082"
         style="fill:none;stroke:#dadbdf;stroke-width:1;stroke-linecap:butt;stroke-linejoin:miter;stroke-miterlimit:10;stroke-dasharray:none;stroke-opacity:1"
         id="path4244"
         inkscape:connector-curvature="0" /></g><g
       id="g4246"
       transform="translate(707.3091,575.3133)"><path
         d="M 0,0 V -643.082"
         style="fill:none;stroke:#dadbdf;stroke-width:1;stroke-linecap:butt;stroke-linejoin:miter;stroke-miterlimit:10;stroke-dasharray:none;stroke-opacity:1"
         id="path4248"
         inkscape:connector-curvature="0" /></g><g
       id="g4250"
       transform="translate(753.0655,575.3133)"><path
         d="M 0,0 V -643.082"
         style="fill:none;stroke:#dadbdf;stroke-width:1;stroke-linecap:butt;stroke-linejoin:miter;stroke-miterlimit:10;stroke-dasharray:none;stroke-opacity:1"
         id="path4252"
         inkscape:connector-curvature="0" /></g><g
       id="g4254"
       transform="translate(798.8223,575.3133)"><path
         d="M 0,0 V -643.082"
         style="fill:none;stroke:#dadbdf;stroke-width:1;stroke-linecap:butt;stroke-linejoin:miter;stroke-miterlimit:10;stroke-dasharray:none;stroke-opacity:1"
         id="path4256"
         inkscape:connector-curvature="0" /></g><g
       id="g4258"
       transform="translate(844.5787,575.3133)"><path
         d="M 0,0 V -643.082"
         style="fill:none;stroke:#dadbdf;stroke-width:1;stroke-linecap:butt;stroke-linejoin:miter;stroke-miterlimit:10;stroke-dasharray:none;stroke-opacity:1"
         id="path4260"
         inkscape:connector-curvature="0" /></g><g
       id="g4262"
       transform="translate(890.3355,575.3133)"><path
         d="M 0,0 V -643.082"
         style="fill:none;stroke:#dadbdf;stroke-width:1;stroke-linecap:butt;stroke-linejoin:miter;stroke-miterlimit:10;stroke-dasharray:none;stroke-opacity:1"
         id="path4264"
         inkscape:connector-curvature="0" /></g><g
       id="g4266"
       transform="translate(936.0918,575.3133)"><path
         d="M 0,0 V -643.082"
         style="fill:none;stroke:#dadbdf;stroke-width:1;stroke-linecap:butt;stroke-linejoin:miter;stroke-miterlimit:10;stroke-dasharray:none;stroke-opacity:1"
         id="path4268"
         inkscape:connector-curvature="0" /></g><g
       id="g4270"
       transform="translate(981.8487,575.3133)"><path
         d="M 0,0 V -643.082"
         style="fill:none;stroke:#dadbdf;stroke-width:1;stroke-linecap:butt;stroke-linejoin:miter;stroke-miterlimit:10;stroke-dasharray:none;stroke-opacity:1"
         id="path4272"
         inkscape:connector-curvature="0" /></g><g
       id="g4274"
       transform="translate(1027.605,575.3133)"><path
         d="M 0,0 V -643.082"
         style="fill:none;stroke:#dadbdf;stroke-width:1;stroke-linecap:butt;stroke-linejoin:miter;stroke-miterlimit:10;stroke-dasharray:none;stroke-opacity:1"
         id="path4276"
         inkscape:connector-curvature="0" /></g><g
       id="g4278"
       transform="translate(1073.3619,575.3133)"><path
         d="M 0,0 V -643.082"
         style="fill:none;stroke:#dadbdf;stroke-width:1;stroke-linecap:butt;stroke-linejoin:miter;stroke-miterlimit:10;stroke-dasharray:none;stroke-opacity:1"
         id="path4280"
         inkscape:connector-curvature="0" /></g><g
       id="g4282"
       transform="translate(1119.1182,575.3133)"><path
         d="M 0,0 V -643.082"
         style="fill:none;stroke:#dadbdf;stroke-width:1;stroke-linecap:butt;stroke-linejoin:miter;stroke-miterlimit:10;stroke-dasharray:none;stroke-opacity:1"
         id="path4284"
         inkscape:connector-curvature="0" /></g><g
       id="g4286"
       transform="translate(1164.875,575.3133)"><path
         d="M 0,0 V -643.082"
         style="fill:none;stroke:#dadbdf;stroke-width:1;stroke-linecap:butt;stroke-linejoin:miter;stroke-miterlimit:10;stroke-dasharray:none;stroke-opacity:1"
         id="path4288"
         inkscape:connector-curvature="0" /></g><g
       id="g4290"
       transform="translate(1210.6314,575.3133)"><path
         d="M 0,0 V -643.082"
         style="fill:none;stroke:#dadbdf;stroke-width:1;stroke-linecap:butt;stroke-linejoin:miter;stroke-miterlimit:10;stroke-dasharray:none;stroke-opacity:1"
         id="path4292"
         inkscape:connector-curvature="0" /></g><g
       id="g4294"
       transform="translate(1256.3882,575.3133)"><path
         d="M 0,0 V -643.082"
         style="fill:none;stroke:#dadbdf;stroke-width:1;stroke-linecap:butt;stroke-linejoin:miter;stroke-miterlimit:10;stroke-dasharray:none;stroke-opacity:1"
         id="path4296"
         inkscape:connector-curvature="0" /></g><g
       id="g4298"
       transform="translate(1302.1446,575.3133)"><path
         d="M 0,0 V -643.082"
         style="fill:none;stroke:#dadbdf;stroke-width:1;stroke-linecap:butt;stroke-linejoin:miter;stroke-miterlimit:10;stroke-dasharray:none;stroke-opacity:1"
         id="path4300"
         inkscape:connector-curvature="0" /></g><g
       id="g4302"
       transform="translate(1347.9014,575.3133)"><path
         d="M 0,0 V -643.082"
         style="fill:none;stroke:#dadbdf;stroke-width:1;stroke-linecap:butt;stroke-linejoin:miter;stroke-miterlimit:10;stroke-dasharray:none;stroke-opacity:1"
         id="path4304"
         inkscape:connector-curvature="0" /></g><g
       id="g4306"
       transform="translate(1393.6578,575.3133)"><path
         d="M 0,0 V -643.082"
         style="fill:none;stroke:#dadbdf;stroke-width:1;stroke-linecap:butt;stroke-linejoin:miter;stroke-miterlimit:10;stroke-dasharray:none;stroke-opacity:1"
         id="path4308"
         inkscape:connector-curvature="0" /></g><g
       id="g4310"
       transform="translate(1439.4146,575.3133)"><path
         d="M 0,0 V -643.082"
         style="fill:none;stroke:#dadbdf;stroke-width:1;stroke-linecap:butt;stroke-linejoin:miter;stroke-miterlimit:10;stroke-dasharray:none;stroke-opacity:1"
         id="path4312"
         inkscape:connector-curvature="0" /></g><g
       id="g4314"
       transform="translate(1485.1709,575.3133)"><path
         d="M 0,0 V -643.082"
         style="fill:none;stroke:#dadbdf;stroke-width:1;stroke-linecap:butt;stroke-linejoin:miter;stroke-miterlimit:10;stroke-dasharray:none;stroke-opacity:1"
         id="path4316"
         inkscape:connector-curvature="0" /></g><g
       id="g4318"
       transform="translate(1573.3282,481.5038)"><path
         d="M 0,0 H -1646.908"
         style="fill:none;stroke:#dadbdf;stroke-width:1;stroke-linecap:butt;stroke-linejoin:miter;stroke-miterlimit:10;stroke-dasharray:none;stroke-opacity:1"
         id="path4320"
         inkscape:connector-curvature="0" /></g><g
       id="g4322"
       transform="translate(1573.3282,435.7474)"><path
         d="M 0,0 H -1646.908"
         style="fill:none;stroke:#dadbdf;stroke-width:1;stroke-linecap:butt;stroke-linejoin:miter;stroke-miterlimit:10;stroke-dasharray:none;stroke-opacity:1"
         id="path4324"
         inkscape:connector-curvature="0" /></g><g
       id="g4326"
       transform="translate(1573.3282,389.9906)"><path
         d="M 0,0 H -1646.908"
         style="fill:none;stroke:#dadbdf;stroke-width:1;stroke-linecap:butt;stroke-linejoin:miter;stroke-miterlimit:10;stroke-dasharray:none;stroke-opacity:1"
         id="path4328"
         inkscape:connector-curvature="0" /></g><g
       id="g4330"
       transform="translate(1573.3282,344.2342)"><path
         d="M 0,0 H -1646.908"
         style="fill:none;stroke:#dadbdf;stroke-width:1;stroke-linecap:butt;stroke-linejoin:miter;stroke-miterlimit:10;stroke-dasharray:none;stroke-opacity:1"
         id="path4332"
         inkscape:connector-curvature="0" /></g><g
       id="g4334"
       transform="translate(1573.3282,298.4774)"><path
         d="M 0,0 H -1646.908"
         style="fill:none;stroke:#dadbdf;stroke-width:1;stroke-linecap:butt;stroke-linejoin:miter;stroke-miterlimit:10;stroke-dasharray:none;stroke-opacity:1"
         id="path4336"
         inkscape:connector-curvature="0" /></g><g
       id="g4338"
       transform="translate(1573.3282,252.7211)"><path
         d="M 0,0 H -1646.908"
         style="fill:none;stroke:#dadbdf;stroke-width:1;stroke-linecap:butt;stroke-linejoin:miter;stroke-miterlimit:10;stroke-dasharray:none;stroke-opacity:1"
         id="path4340"
         inkscape:connector-curvature="0" /></g><g
       id="g4342"
       transform="translate(1573.3282,206.9642)"><path
         d="M 0,0 H -1646.908"
         style="fill:none;stroke:#dadbdf;stroke-width:1;stroke-linecap:butt;stroke-linejoin:miter;stroke-miterlimit:10;stroke-dasharray:none;stroke-opacity:1"
         id="path4344"
         inkscape:connector-curvature="0" /></g><g
       id="g4346"
       transform="translate(1573.3282,161.2074)"><path
         d="M 0,0 H -1646.908"
         style="fill:none;stroke:#dadbdf;stroke-width:1;stroke-linecap:butt;stroke-linejoin:miter;stroke-miterlimit:10;stroke-dasharray:none;stroke-opacity:1"
         id="path4348"
         inkscape:connector-curvature="0" /></g><g
       id="g4350"
       transform="translate(1573.3282,114.7172)"><path
         d="M 0,0 H -1646.908"
         style="fill:none;stroke:#dadbdf;stroke-width:1;stroke-linecap:butt;stroke-linejoin:miter;stroke-miterlimit:10;stroke-dasharray:none;stroke-opacity:1"
         id="path4352"
         inkscape:connector-curvature="0" /></g><g
       id="g4354"
       transform="translate(1573.3282,68.9603)"><path
         d="M 0,0 H -1646.908"
         style="fill:none;stroke:#dadbdf;stroke-width:1;stroke-linecap:butt;stroke-linejoin:miter;stroke-miterlimit:10;stroke-dasharray:none;stroke-opacity:1"
         id="path4356"
         inkscape:connector-curvature="0" /></g><g
       id="g4358"
       transform="translate(1573.3282,23.2035)"><path
         d="M 0,0 H -1646.908"
         style="fill:none;stroke:#dadbdf;stroke-width:1;stroke-linecap:butt;stroke-linejoin:miter;stroke-miterlimit:10;stroke-dasharray:none;stroke-opacity:1"
         id="path4360"
         inkscape:connector-curvature="0" /></g><g
       id="g4396"
       transform="translate(1439.7915,165.099)"><path
         d="m 0,0 c -6.239,0 -11.296,-5.058 -11.296,-11.296 0,-6.238 5.057,-11.296 11.296,-11.296 6.239,0 11.296,5.058 11.296,11.296 C 11.296,-5.058 6.239,0 0,0 m 0,-2 c 5.126,0 9.296,-4.17 9.296,-9.296 0,-5.126 -4.17,-9.296 -9.296,-9.296 -5.125,0 -9.296,4.17 -9.296,9.296 C -9.296,-6.17 -5.125,-2 0,-2"
         style="fill:#ffffff;fill-opacity:1;fill-rule:nonzero;stroke:none"
         id="path4398"
         inkscape:connector-curvature="0" /></g><g
       id="g4400"
       transform="translate(1439.7915,137.3236)"><path
         d="M 0,0 C -12.677,0 -22.953,-10.276 -22.953,-22.953 H 22.954 C 22.954,-10.276 12.677,0 0,0 m 0,-2 c 10.88,0 19.849,-8.334 20.859,-18.953 H -20.859 C -19.849,-10.334 -10.879,-2 0,-2"
         style="fill:#ffffff;fill-opacity:1;fill-rule:nonzero;stroke:none"
         id="path4402"
         inkscape:connector-curvature="0" /></g><g
       id="g4412"
       transform="translate(1501.001,165.099)"><path
         d="m 0,0 c -6.239,0 -11.296,-5.058 -11.296,-11.296 0,-6.238 5.057,-11.296 11.296,-11.296 6.238,0 11.296,5.058 11.296,11.296 C 11.296,-5.058 6.238,0 0,0 m 0,-2 c 5.126,0 9.296,-4.17 9.296,-9.296 0,-5.126 -4.17,-9.296 -9.296,-9.296 -5.126,0 -9.296,4.17 -9.296,9.296 C -9.296,-6.17 -5.126,-2 0,-2"
         style="fill:#ffffff;fill-opacity:1;fill-rule:nonzero;stroke:none"
         id="path4414"
         inkscape:connector-curvature="0" /></g><g
       id="g4416"
       transform="translate(1501.001,137.3236)"><path
         d="M 0,0 C -12.677,0 -22.954,-10.276 -22.954,-22.953 H 22.953 C 22.953,-10.276 12.677,0 0,0 m 0,-2 c 10.879,0 19.849,-8.334 20.858,-18.953 H -20.859 C -19.849,-10.334 -10.88,-2 0,-2"
         style="fill:#ffffff;fill-opacity:1;fill-rule:nonzero;stroke:none"
         id="path4418"
         inkscape:connector-curvature="0" /></g><g
       id="g4428"><g
         id="g4430"
         clip-path="url(#clipPath4434)"><g
           id="g4436"
           transform="translate(1347.1788,462.8505)"><path
             d="m 0,0 c -63.176,0 -114.391,-51.215 -114.391,-114.391 0,-63.177 51.215,-114.392 114.391,-114.392 63.177,0 114.392,51.215 114.392,114.392 C 114.392,-51.215 63.177,0 0,0 m 0,-2 c 30.021,0 58.245,-11.69 79.473,-32.918 21.228,-21.228 32.919,-49.453 32.919,-79.473 0,-30.021 -11.691,-58.245 -32.919,-79.473 C 58.245,-215.092 30.021,-226.783 0,-226.783 c -30.021,0 -58.245,11.691 -79.473,32.919 -21.228,21.228 -32.918,49.452 -32.918,79.473 0,30.02 11.69,58.245 32.918,79.473 C -58.245,-13.69 -30.021,-2 0,-2"
             style="fill:#ffffff;fill-opacity:1;fill-rule:nonzero;stroke:none"
             id="path4438"
             inkscape:connector-curvature="0" /></g><g
           id="g4440"
           transform="translate(1347.1788,462.8505)"><path
             d="m 0,0 c -24.97,0 -45.211,-51.215 -45.211,-114.391 0,-63.177 20.241,-114.392 45.211,-114.392 24.97,0 45.212,51.215 45.212,114.392 C 45.212,-51.215 24.97,0 0,0 m 0,-2 c 11.037,0 22.012,-11.75 30.11,-32.239 8.449,-21.378 13.102,-49.843 13.102,-80.152 0,-30.31 -4.653,-58.775 -13.102,-80.152 -8.098,-20.489 -19.073,-32.24 -30.11,-32.24 -11.037,0 -22.011,11.751 -30.109,32.24 -8.45,21.377 -13.102,49.842 -13.102,80.152 0,30.309 4.652,58.774 13.102,80.152 C -22.011,-13.75 -11.037,-2 0,-2"
             style="fill:#ffffff;fill-opacity:1;fill-rule:nonzero;stroke:none"
             id="path4442"
             inkscape:connector-curvature="0" /></g><g
           id="g4444"
           transform="translate(1248.0914,405.6547)"><path
             d="M 0,0 H 197.611"
             style="fill:none;stroke:#ffffff;stroke-width:2;stroke-linecap:butt;stroke-linejoin:miter;stroke-miterlimit:10;stroke-dasharray:none;stroke-opacity:1"
             id="path4446"
             inkscape:connector-curvature="0" /></g><g
           id="g4448"
           transform="translate(1232.7877,344.3441)"><path
             d="M 0,0 H 227.783"
             style="fill:none;stroke:#ffffff;stroke-width:2;stroke-linecap:butt;stroke-linejoin:miter;stroke-miterlimit:10;stroke-dasharray:none;stroke-opacity:1"
             id="path4450"
             inkscape:connector-curvature="0" /></g><g
           id="g4452"
           transform="translate(1254.3883,284.4774)"><path
             d="M 0,0 H 186.687"
             style="fill:none;stroke:#ffffff;stroke-width:2;stroke-linecap:butt;stroke-linejoin:miter;stroke-miterlimit:10;stroke-dasharray:none;stroke-opacity:1"
             id="path4454"
             inkscape:connector-curvature="0" /></g><g
           id="g4456"
           transform="translate(1141.922,223.0067)"><path
             d="m 0,0 -10.716,-13.809 c -4.307,1.147 -8.692,1.706 -13.049,1.706 -4.443,0 -8.856,-0.582 -13.122,-1.714 L -47.609,0 -66.535,-10.927 -59.934,-27.11 c -3.047,-3.065 -5.754,-6.567 -8.017,-10.487 -2.262,-3.919 -3.943,-8.014 -5.072,-12.185 l -17.316,-2.376 v -21.854 l 17.327,-2.377 c 2.282,-8.438 6.722,-16.293 13.078,-22.669 l -6.601,-16.184 18.926,-10.927 10.715,13.809 c 4.308,-1.147 8.693,-1.705 13.05,-1.705 4.443,0 8.856,0.581 13.122,1.713 L 0,-126.169 l 18.926,10.927 -6.601,16.184 c 3.048,3.065 5.754,6.567 8.017,10.486 2.262,3.919 3.942,8.014 5.073,12.185 l 17.315,2.375 v 21.854 l -17.327,2.378 c -2.281,8.439 -6.722,16.293 -13.078,22.669 l 6.601,16.184 z m -48.12,-2.604 9.653,-12.439 0.813,-1.047 1.28,0.34 c 4.117,1.093 8.359,1.647 12.609,1.647 4.234,0 8.452,-0.551 12.535,-1.638 l 1.281,-0.342 0.813,1.048 9.647,12.431 15.905,-9.183 -5.943,-14.569 -0.501,-1.228 0.937,-0.939 c 5.992,-6.012 10.337,-13.542 12.563,-21.779 l 0.346,-1.28 1.313,-0.18 15.599,-2.14 v -18.365 l -15.587,-2.138 -1.312,-0.18 -0.347,-1.278 c -1.106,-4.083 -2.746,-8.023 -4.875,-11.709 -2.127,-3.686 -4.719,-7.075 -7.702,-10.075 l -0.934,-0.94 0.5,-1.226 5.943,-14.569 -15.905,-9.182 -9.653,12.439 -0.813,1.047 -1.281,-0.34 c -4.117,-1.094 -8.358,-1.647 -12.608,-1.647 -4.234,0 -8.451,0.55 -12.535,1.637 l -1.282,0.342 -0.813,-1.048 -9.646,-12.43 -15.904,9.182 5.942,14.569 0.501,1.228 -0.937,0.939 c -5.992,6.012 -10.336,13.543 -12.564,21.78 l -0.345,1.279 -1.313,0.18 -15.599,2.14 v 18.365 l 15.588,2.139 1.312,0.18 0.346,1.278 c 1.106,4.083 2.746,8.022 4.874,11.708 2.129,3.686 4.72,7.076 7.703,10.076 l 0.934,0.939 -0.501,1.227 -5.941,14.568 15.904,9.183"
             style="fill:#ffffff;fill-opacity:1;fill-rule:nonzero;stroke:none"
             id="path4458"
             inkscape:connector-curvature="0" /></g><g
           id="g4460"
           transform="translate(1118.1354,178.914)"><path
             d="m 0,0 c -6.562,0 -12.945,-3.406 -16.462,-9.497 -5.244,-9.082 -2.132,-20.695 6.95,-25.939 2.991,-1.726 6.255,-2.547 9.476,-2.547 6.562,0 12.946,3.406 16.462,9.498 5.244,9.082 2.132,20.694 -6.95,25.938 C 6.486,-0.82 3.222,0 0,0 m 0,-2 v 0 c 2.963,0 5.894,-0.788 8.476,-2.279 3.93,-2.269 6.741,-5.932 7.916,-10.316 1.174,-4.383 0.571,-8.961 -1.698,-12.89 -3.026,-5.243 -8.67,-8.498 -14.73,-8.498 -2.963,0 -5.894,0.788 -8.476,2.279 -3.93,2.269 -6.741,5.933 -7.915,10.315 -1.175,4.384 -0.572,8.962 1.697,12.892 C -11.704,-5.256 -6.06,-2 0,-2"
             style="fill:#ffffff;fill-opacity:1;fill-rule:nonzero;stroke:none"
             id="path4462"
             inkscape:connector-curvature="0" /></g></g></g><text
       transform="matrix(1,0,0,-1,114.3647,81.333)"
       style="font-variant:normal;font-weight:normal;font-stretch:normal;font-size:28px;font-family:'Google Sans Display';-inkscape-font-specification:GoogleSansDisplay-Regular;writing-mode:lr-tb;fill:#ffffff;fill-opacity:1;fill-rule:nonzero;stroke:none"
       id="text4590"><tspan
         x="0 16.072001 25.48 41.216 57.652 63.363998 78.764 85.260002 92.064003 116.116 130.592 146.916"
         y="0"
         sodipodi:role="line"
         id="tspan4588">Profle Image</tspan></text>
</g></svg>